/* XPM */
static char *back[] = {
/* columns rows colors chars-per-pixel */
"50 50 71 1 ",
"  c #141B1B",
". c #151C1C",
"X c #171F1E",
"o c #181F1F",
"O c #19201F",
"+ c #1A2221",
"@ c #1B2321",
"# c #1C2422",
"$ c #1C2522",
"% c #1D2623",
"& c #1D2624",
"* c #1E2725",
"= c #1F2725",
"- c #232627",
"; c #212927",
": c #222B28",
"> c #252B2A",
", c #232C28",
"< c #242D29",
"1 c #252E2B",
"2 c #2A2C2D",
"3 c #26302C",
"4 c #27312C",
"5 c #2A342F",
"6 c #2B3530",
"7 c #2E3532",
"8 c #2D3732",
"9 c #2D3832",
"0 c #313233",
"q c #333334",
"w c #303B35",
"e c #383738",
"r c #333F38",
"t c #3B393B",
"y c #403D3E",
"u c #344039",
"i c #3A463E",
"p c #3C4940",
"a c #3D4A41",
"s c #474244",
"d c #4A4547",
"f c #414F44",
"g c #4E484A",
"h c #4F4B4C",
"j c #504D4D",
"k c #435146",
"l c #465549",
"z c #49534B",
"x c #49544B",
"c c #48564A",
"v c #4C544C",
"b c #4C5C4F",
"n c #50564F",
"m c #525250",
"M c #535450",
"N c #535551",
"B c #525751",
"V c #545752",
"C c #555C54",
"Z c #575D55",
"A c #585F56",
"S c #566657",
"D c #596258",
"F c #5A655A",
"G c #5B675B",
"H c #5D6C5D",
"J c #5D6D5E",
"K c #5E6E5E",
"L c #5E6F5F",
"P c #5F7160",
"I c None",
/* pixels */
"IIIIIIIIIIIIIIII  +886.     688+  IIIIIIIIIIIIIIII",
"IIIIIIIIIIIIIIII  +886      588+  IIIIIIIIIIIIIIII",
"IIIIIIIIIIIIIIII  +896 .    688+  IIIIIIIIIIIIIIII",
"IIIIIIIIIIIIIIII  .o.=SSSSSS=o..  IIIIIIIIIIIIIIII",
"IIIIIIIIIIIIIIII     =PPPPPP=     IIIIIIIIIIIIIIII",
"IIIIIIIIIIIIIIII    .#PPPPPP$.   .IIIIIIIIIIIIIIII",
"III           .+::=  #PPPPPP$  =::+            III",
"III           .#33;  =PPPPPP$  :33+            III",
"III            #33:. =PPPPPP=..:33+.           III",
"   :<<o     +####+<kklPPPPPPlff<#+#=#O     o<<<III",
"   588+     #,,=..3PPPPPPPPPPPP5  #,<#.    +888III",
"   588+     #,,#  3PPPPPPPPPPPP1  =,<#     +888III",
"   =;;riiiii6##O  ,ZZZPPPPPPPPP3  O##6iiiiir;;;III",
"      bPPPPPi     -ggjPPPPPPPPP3     iPPPPPb   III",
"      bPPPPPi   ..-ggjPPPPPPPPP5     iPPPPPb   III",
"      bPPPPPcww822qgghDDDDDDKPPpwwwwwcPPPPPb   III",
"      bPPPPPPPPDggggggggggggHPPPPPPPPPPPPPPb   III",
"     .bPPPPPPPPDggggggggggggHPPPPPPPPPPPPPPb   III",
"      cGFKPPPPPFmmmmmmmmmmmmKPPPPPPPPPPPKFFz   III",
"III   yggDPPPPPPPPPPPPPPPPPPPPPPPPPPPPPPDggy   III",
"III   tggDPPPPPPPPPPPPPPPPPPPPPPPPPPPPPPDggt.. III",
"III   tdsZHHHHHKPPPPPPPPPPPPPPPPPPKHHHHKZsst.. III",
"IIIIII   egggggVPPPPPPPPPPPPPPPPPPVggggge   IIIIII",
"IIIIII   egggggVPPPPPPPPPPPPPPPPPPVggggge   IIIIII",
"IIIIII   egggggVPPPPPPPPPPPPPPPPPPVggggge   IIIIII",
"IIIIII      0gggggggggggggggggggggggg0      IIIIII",
"IIIIII      0gggggggggggggggggggggggg0      IIIIII",
"IIIIII      0gggggggggggggggggggggggg0      IIIIII",
"IIIIII   aSSBggggggggggggggggggggggggBSSa   IIIIII",
"IIIIII  .kPPZggggggggggggggggggggggggZPPk   IIIIII",
"IIIIII   fPPZggggggggggggggggggggggggZPPk   IIIIII",
"III   fbbBmmhggggggggggggggggggggggggjmmnbbf   III",
"III   bPPVggggggggggggggggggggggggggggggVPPb   III",
"III   bPPVggggggggggggggggggggggggggggggVPPb   III",
"III   bPPVggggggggggggggggggggggggggggggVPPb   III",
"III   bPPVggggggggggggggggggggggggggggggVPPb   III",
"III   bPPVggggggggggggggggggggggggggggggVPPb   III",
"IIIIIIuiivZZmggggggggggggggggggggggggmZZviiuIIIIII",
"IIIIII   kPPZggggggggggggggggggggggggZPPk   IIIIII",
"IIIIII   kPPZggggggggggggggggggggggggAPPk   IIIIII",
"IIIIII8wwzDDmggggggggggggggggggggggggVDDzww8IIIIII",
"III  .bPPVggggggggggggggggggggggggggggggVPPb   III",
"III   bPPVggggggggggggggggggggggggggggggVLPb   III",
"III   cFFVggggggggggggggggggggggggggggggBGGz   III",
"III   yggggggggggggggggggggggggggggggggggggy   III",
"III   yggggggggggggggggggggggggggggggggggggy   III",
"III   tsssssdggggggggggggggggggggggggdssssst   III",
"IIIIII      0gggggggggggggggggggggggg0      IIIIII",
"IIIIII      0gggggggggggggggggggggggg0      IIIIII",
"IIIIII      0gggggggggggggggggggggggg0      IIIIII"
};
