/* XPM */
static char *collectBigger[] = {
/* columns rows colors chars-per-pixel */
"50 50 55 1 ",
"  c #141B1B",
". c #232627",
"X c #292C26",
"o c #2C2E27",
"O c #37372F",
"+ c #2F3636",
"@ c #323A34",
"# c #3B3A30",
"$ c #313838",
"% c #3A423A",
"& c #444134",
"* c #3D4343",
"= c #434B41",
"- c #434949",
"; c #4E484A",
": c #485046",
"> c #5A524F",
", c #51594D",
"< c #4F5454",
"1 c #5C5450",
"2 c #5F5550",
"3 c #73674C",
"4 c #60695A",
"5 c #6A6D59",
"6 c #717059",
"7 c #656969",
"8 c #6F7866",
"9 c #7C7B62",
"0 c #7C7D66",
"q c #6C7171",
"w c #7B7C78",
"e c #7B7F7F",
"r c #8B7A58",
"t c #8D977F",
"y c #9E9E7F",
"u c #A38D65",
"i c #A18B6A",
"p c #AA9676",
"a c #B19870",
"s c #B59C72",
"d c #C2A677",
"f c #D2B37D",
"g c #8A8D8D",
"h c #989B9B",
"j c #A7AAAA",
"k c #D6B987",
"l c #D8BD8D",
"z c #E3D0AE",
"x c #EEE3CE",
"c c #F4ECDF",
"v c #F9F6EF",
"b c #FEFDFB",
"n c #FEFEFD",
"m c white",
"M c None",
/* pixels */
"MMMMMMMMMMMMMMMMMMMMMMMMMMMMMMMMMMMMMMMMMMMMMMMMMM",
"MMMMMMMMMMMMMMMMMMMMMMMMMMMMMMMMMMMMMMMMMMMMMMMMMM",
"MMMMMMMMMMMMMMMMMMMMMMMMMMMMMMMMMMMMMMMMMMMMMMMMMM",
"MMMMMMMMMMMMMMMMMMMMMMMMMMMMMMMMMMMMMMMMMMMMMMMMMM",
"MMMMMMMMMMMMMMMMMMMMMMMMMMMMMMMMMMMMMMMMMMMMMMMMMM",
"MMMMMMMMMMMMMMMMMMMMMMMMMMMMMMMMMMMMMMMMMMMMMMMMMM",
"MMMMMMMMMMMMMMMMMMMMMMMMMMMMMMMMMMMMMMMMMMMMMMMMMM",
"MMMMMMMMMMMMMMMMMMMMMMMMMMMMMMMMMMMMMMMMMMMMMMMMMM",
"MMMMMMMMMMMMMMMMMMMMMMMMMMMMMMMMMMMMMMMMMMMMMMMMMM",
"MMMMMMMMMMMMMMMMMMMMMMMMMMMMMMMMMMMMMMMMMMMMMMMMMM",
"MMMMMMMMMMMMMMMMMMMMMMMMMMMMMMMMMMMMMMMMMMMMMMMMMM",
"MMMMMMMMMMMMMMMMMMMMMMMMMMMMMMMMMMMMMMMMMMMMMMMMMM",
"MMMMMMMMMMMMMMMMMMMMMMMMMMMMMMMMMMMMMMMMMMMMMMMMMM",
"MMMMMMMMMMMMMMMMMMM         MMMMMMMMMMMMMMMMMMMMMM",
"MMMMMMMMMMMMMMMMMMM         MMMMMMMMMMMMMMMMMMMMMM",
"MMMMMMMMMMMMMMMMMM*qqqqqqqqqMMMMMMMMMMMMMMMMMMMMMM",
"MMMMMMMMMMMMM     <mmmmmmmmm$     MMMMMMMMMMMMMMMM",
"MMMMMMMMMMMMM     <mmmmmmmmm$     MMMMMMMMMMMMMMMM",
"MMMMMMMMMMMM-<<<<<emmmmmmmmm7<<<<<*MMMMMMMMMMMMMMM",
"MMMMMMMMM   gmmmmmmmmmmmmmmmmmmmmmq  MMMMMMMMMMMMM",
"MMMMMMMMM   gmmmmmmmmmmmmmmmmmmmmmq  MMMMMMMMMMMMM",
"MMMMMMMMM+$$hmmmmmbvvvvvvvvvmmmmmmwooXMMMMMMMMMMMM",
"MMMMMM   jmmmmmmmmcfffffffffvmmmmmzff3   MMMMMMMMM",
"MMMMMM   jmmmmmmmmcfffffffffvmmmmmzff3   MMMMMMMMM",
"MMMMMM   jmmmmmmmmcfffffffffvmmmmmzff3   MMMMMMMMM",
"MMM   uffxmmmmmxffa;;;;;;;;;dfffffffffffr   MMMMMM",
"MMM   uffxmmmmmxffa;;;;;;;;;dfffffffffffr   MMMMMM",
"MMM   uffxmmmmmxffa;;;;;;;;;dfffffffffffr   MMMMMM",
"MMM   uffklllllp22>;;;;;;;;;>22sffffffffr   MMMMMM",
"MMM   uffffffffi;;;;;;;;;;;;;;;affffffffr   MMMMMM",
"MMM   uffffffffi;;;;;;;;;;;;;;;affffffffr   MMMMMM",
"MMM   0yyyyy6&&O...............#&&9yyyyy5   MMMMMM",
"MMM   8ttttt,                     4ttttt4   MMMMMM",
"MMM   8ttttt,                     4ttttt4   MMMMMM",
"MMM   8ttttt,                     4ttttt4   MMMMMM",
"MMM   8ttttt,                     4ttttt4   MMMMMM",
"MMM   8ttttt,                     4ttttt4   MMMMMM",
"MMMMMM:,,,,,@                     %,,,,,=MMMMMMMMM",
"MMMMMM                                   MMMMMMMMM",
"MMMMMM                                   MMMMMMMMM",
"MMMMMMM                                 MMMMMMMMMM",
"MMMMMMMMMMMMMMMMMMMMMMMMMMMMMMMMMMMMMMMMMMMMMMMMMM",
"MMMMMMMMMMMMMMMMMMMMMMMMMMMMMMMMMMMMMMMMMMMMMMMMMM",
"MMMMMMMMMMMMMMMMMMMMMMMMMMMMMMMMMMMMMMMMMMMMMMMMMM",
"MMMMMMMMMMMMMMMMMMMMMMMMMMMMMMMMMMMMMMMMMMMMMMMMMM",
"MMMMMMMMMMMMMMMMMMMMMMMMMMMMMMMMMMMMMMMMMMMMMMMMMM",
"MMMMMMMMMMMMMMMMMMMMMMMMMMMMMMMMMMMMMMMMMMMMMMMMMM",
"MMMMMMMMMMMMMMMMMMMMMMMMMMMMMMMMMMMMMMMMMMMMMMMMMM",
"MMMMMMMMMMMMMMMMMMMMMMMMMMMMMMMMMMMMMMMMMMMMMMMMMM",
"MMMMMMMMMMMMMMMMMMMMMMMMMMMMMMMMMMMMMMMMMMMMMMMMMM"
};
