/* XPM */
static char *biggerDoor[] = {
/* columns rows colors chars-per-pixel */
"50 50 179 2 ",
"   c #141B1B",
".  c #191D1D",
"X  c #171F20",
"o  c #192022",
"O  c #1E2B2C",
"+  c #2F2723",
"@  c #372621",
"#  c #24302F",
"$  c #29323C",
"%  c #2C3A39",
"&  c #283637",
"*  c #2F322F",
"=  c #402B21",
"-  c #402E28",
";  c #482B24",
":  c #532F26",
">  c #44392C",
",  c #7E393C",
"<  c #694332",
"1  c #704335",
"2  c #734935",
"3  c #765837",
"4  c #2D3A40",
"5  c #2D3543",
"6  c #323D47",
"7  c #2C4444",
"8  c #334645",
"9  c #384A48",
"0  c #30484B",
"q  c #425D5B",
"w  c #6C4D43",
"e  c #6F654F",
"r  c #6F6650",
"t  c #756A54",
"y  c #7B7057",
"u  c #424B63",
"i  c #4B5471",
"p  c #4F5B74",
"a  c #515E76",
"s  c #4E6679",
"d  c #4F6B7C",
"f  c #5A6C7D",
"g  c #536479",
"h  c #50717F",
"j  c #833D3F",
"k  c #A5303E",
"l  c #AB313F",
"z  c #8F492D",
"x  c #81533D",
"c  c #925131",
"v  c #905E3D",
"b  c #A95331",
"n  c #BB5A34",
"m  c #B15939",
"M  c #98663D",
"N  c #8A643C",
"B  c #C86338",
"V  c #D9683F",
"C  c #D56337",
"Z  c #D2713F",
"A  c #E66A3A",
"S  c #AD3240",
"D  c #E0394C",
"F  c #965340",
"G  c #8F6841",
"H  c #946D42",
"J  c #9C7347",
"K  c #89765B",
"L  c #987A53",
"P  c #957957",
"I  c #916E50",
"U  c #A76245",
"Y  c #A56747",
"T  c #A3754E",
"R  c #AB734B",
"E  c #B1734A",
"W  c #BE754B",
"Q  c #AE7C51",
"!  c #8A7C60",
"~  c #E14753",
"^  c #C77D4E",
"/  c #D97743",
"(  c #EA7540",
")  c #E77B4A",
"_  c #EB7B45",
"`  c #BC8959",
"'  c #BA824A",
"]  c #968768",
"[  c #B98F64",
"{  c #BC9266",
"}  c #BF976B",
"|  c #B7A27B",
" . c #CE844F",
".. c #C6804D",
"X. c #D8884B",
"o. c #C48953",
"O. c #CA8D54",
"+. c #C98652",
"@. c #D68952",
"#. c #DC8F53",
"$. c #D18650",
"%. c #D39256",
"&. c #DA9756",
"*. c #DD9857",
"=. c #DC9959",
"-. c #EE884E",
";. c #ED914F",
":. c #F38258",
">. c #E39353",
",. c #E29B55",
"<. c #E29C58",
"1. c #E89F59",
"2. c #E89755",
"3. c #F59350",
"4. c #FA9E55",
"5. c #F29B5C",
"6. c #EBA157",
"7. c #ECA158",
"8. c #F2A65D",
"9. c #FCA659",
"0. c #FFAD5D",
"q. c #C49A6D",
"w. c #C89968",
"e. c #DB9364",
"r. c #C59E71",
"t. c #EA967B",
"y. c #EB987A",
"u. c #F09F65",
"i. c #DCA467",
"p. c #CBA274",
"a. c #CDA879",
"s. c #D4A978",
"d. c #ECA76B",
"f. c #FBAB60",
"g. c #F6AB68",
"h. c #FDB164",
"j. c #FBB56B",
"k. c #EBA977",
"l. c #E6A977",
"z. c #EAB476",
"x. c #F9BA74",
"c. c #F7BE7C",
"v. c #F8BC78",
"b. c #F6C07F",
"n. c #5D7581",
"m. c #527E85",
"M. c #517580",
"N. c #627983",
"B. c #558485",
"V. c #548789",
"C. c #5D8488",
"Z. c #568889",
"A. c #5A8A8B",
"S. c #5D8287",
"D. c #658185",
"F. c #638689",
"G. c #628E8D",
"H. c #6D8C8A",
"J. c #67918E",
"K. c #71938D",
"L. c #6E9490",
"P. c #759892",
"I. c #C7AC80",
"U. c #D5B383",
"Y. c #D4B98B",
"T. c #DCBC8B",
"R. c #E1BF8D",
"E. c #EDB985",
"W. c #DCC091",
"Q. c #E2C18F",
"!. c #F4C284",
"~. c #F2C68B",
"^. c #F1C88E",
"/. c #E5C491",
"(. c #EFCD97",
"). c #EECF9B",
"_. c #E8C795",
"`. c #F1CA91",
"'. c None",
/* pixels */
"'.      '.'.'.'.'.'.'.'.'.'.'.'.'.'.'.'.'.'.'.'.'.'.'.'.'.'.'.'.'.'.'.'.'.'.'.'.'.'.'.'.'.'.      '.",
"  H.K.K.#       . .                                     .                                 # K.K.H.  ",
"  K.P.P.p D.H.H.H.H.H.H.H.H.H.H.H.H.K.H.H.H.H.H.H.H.H.H.H.H.K.H.H.K.H.H.H.H.H.H.H.H.K.H.N.p P.P.K.  ",
"  K.P.P.a H.P.P.P.P.P.P.P.P.P.P.P.P.P.P.P.P.P.P.P.P.P.P.P.P.P.P.P.P.P.P.P.P.P.P.P.P.P.P.H.a P.P.K.  ",
"  B.Z.g i g g p a a a a a a a a g p a a a a a a a a a a g p p a a a a a a a a a g p a a p p V.A.Z.  ",
"  H.L.p h h F.H.H.H.H.H.H.H.H.H.f g H.H.H.H.H.H.H.H.H.H.H.H.H.H.H.H.H.S.N.H.H.H.H.H.H.H.H.D.g L.K.  ",
"  K.P.p B.V.L.P.P.L.9 % % % % % % # % % % % % % & % % % % % % % % % % & & % % q J.P.P.P.P.H.p P.K.  ",
"  K.P.p m.B.L.P.P.q w b b b b b b b b b b b b b b b b b b b b b b b b b b b b 2 q P.P.P.P.H.a P.K.  ",
"  K.P.a m.B.L.P.P.9 z A A A A A A A A A A A A A A A A A A A A A A A A A A A A z 9 P.P.P.P.K.p P.K.  ",
"  K.P.p s s S.A.n.4 v d.k.k.k.k.d.5.k.k.k.k.k.3.3.3.k.k.k.k.k.k.k.5.d.k.k.k.k.I 0 G.G.G.G.m.p P.K.  ",
"  K.P.p N.N.G.J.D.8 L ^.).).).^.c.~.).).T.r r 3 3 3 r r W.b.v.v.x.h.j.~.).).).] 8 J.J.J.L.F.p P.K.  ",
"  K.P.a F.G.G.G.G.8 T v.~.).^.v.!.).).Y.y ! K H ! M K H y 7.v.b.b.b.b.b.~.~.c.L 9 P.P.P.P.H.p P.K.  ",
"  K.P.a m.B.V.V.V.7 P v.~.~.v.~.).).Y.K L `.c.v.b.b.c.c.H N T.(.).!.b.b.~.~.c.L 9 P.P.P.P.H.a P.K.  ",
"  K.K.a m.V.V.V.V.7 P ^.).b.v.).).`.{ > v.v.h.).0.).f.E.c.* a.).!.j.j.^.~.c.!.L 9 P.P.P.P.H.a P.K.  ",
"  K.P.p d h h h M.4 L ~.^.v.!.).(.i.v x y.x.h.).0.(.h.v.t.j K Y.j.0.!.~.E.v.c.L 6 N.J.J.J.F.a P.K.  ",
"  K.P.p f f f f f 4 ] ^.x.v.).(.v.W ; D ~ y.:.t.:.y.) t.~ D @ | b.h.x.b.~.).`.P 4 n.A.A.A.m.a P.K.  ",
"  L.P.a H.P.P.P.P.9 ] x.0.c.).!.g.w.w l D D D D D D D D D k < a.).j.j.~.`.~.x.Y 9 L.J.L.A.H.a P.K.  ",
"  L.P.a H.P.P.P.P.9 I g.9.c.`.c.x.).a.< k l D D D D D l k < *.^.).x.E.`.j.9.4.M 9 P.P.L.G.H.a P.K.  ",
"  K.P.a H.P.P.P.P.9 c _ 3.x.c.f.x.).~.X.; : S S l S S : ; >.0.~.).x.c.j.0.3._ c 9 P.P.P.P.H.p P.K.  ",
"  K.P.a N.H.H.G.H.8 M 9.0.9.4.4.g.`.E.A A C = = = = = V A A 8.^.`.g.4.4.9.0.9.M 8 H.H.H.H.F.p P.K.  ",
"  K.P.p p p i p p $ c 3.f.;.) ) -.j.!.9.) ) ) ( A ) ) -.A 8.`.(.g.-.) ) ;.0.3.c $ p p i p p p P.K.  ",
"  K.P.p m.V.V.V.V.0 G ,./ e.).).l.Z *.d.Y.Y.U.*.,.Y.Y.Y.7.W.Y.i./ U.).).e./ ,.G 0 B.V.V.V.B.p P.K.  ",
"  K.P.p m.V.V.V.V.s 5 X X t R.W.] o o o . X o X o o X X X X X X X ] R.T.t X o 5 s V.V.V.V.m.i P.K.  ",
"  K.P.p m.V.V.V.V.s i i i 6 o o $ i i i i i i i i i i i i i i i i 5 X X 6 i i i d V.V.V.V.m.p P.K.  ",
"  K.P.a m.V.V.V.V.V.V.d n.P.P.P.P.P.P.P.P.P.L.i V.V.V.V.V.V.V.V.V.V.V.V.d d V.V.V.V.V.V.B.m.p P.K.  ",
"  K.P.p m.V.V.V.V.B.V.d n.P.P.P.P.P.P.P.P.P.L.i V.V.V.V.V.V.V.V.V.B.V.V.d d V.V.V.V.V.V.V.B.a P.K.  ",
"  S.Z.O u i i i i i i i i i i i i i i i i i i i i i i i i i i i i i i i i i i p i i i i i u O Z.B.  ",
"  X o X X m C / ;.d.8.8.8.7.g.7.8.d.8.8.8.8.8.8.8.8.8.8.8.8.7.d.8.5.d.8.7.g.7.7.8.>.V V m o . o o   ",
"'.  n B @ n A 3.0.0.^ @.$. .%...*.W 0.0.0.0.0.0.0.0.0.0.f.0.0.0.^ #.^ #. .$.@.^ 0.0.3.A n + B n   '.",
"'.  C A @ n 3.9.!.`.w.r.r.w.p.{ s.` ^.(.`.`.`.`.`.`.`.`.`.`.`.`.[ s.[ p.w.r.p.q.(.c.0.3.n @ A C   '.",
"'.  2.4.B ;.9.E.`.).q.a.p.r.a.} s.[ ).).).).).).).).).).).).).).[ U.} a.r.p.p.} ).(.c.0.;.B 4.2.  '.",
"'.  7.0.( 4.0.~.).).Q./././._./._.Q.).).).).).).).).).).).).).).T._././././././.).).!.0.9.A 0.6.  '.",
"'.  7.0._  .' { [ [ [ [ [ { [ [ [ [ [ [ [ [ [ [ [ [ [ [ [ [ [ [ [ [ [ [ [ [ [ [ [ [ [ ' ^ ( 0.1.  '.",
"'.  7.0.A >.<.<.<.*.<.<.*.<.<.*.+.x > > > > > > > > > > > > > > x +.<.<.=.<.<.<.<.=.<.<.>.( 0.7.  '.",
"'.  7.0._  .o.8.&.o.o.<.<.o.o.&.#.1                             1 #.&.o.o.,.1.o.o.&.7.o. ._ 0.7.  '.",
"'.  6.0.A E T <.o.T T %.%.T T o.#.1                             1 #.o.T T %.%.T T o.<.T E A 0.1.  '.",
"'.  6.0.( E T <.o.J { d.%.T T o.#.1                             1 #.O.T T %.%.T T o.<.T E _ 0.7.  '.",
"'.  7.0.( E T <.o.{ W.v.%.T T o.#.1                             1 #.o.T L @.%.T T o.<.T E A 0.7.  '.",
"'.  6.0.( E T <.i.T.(.v.%.T T o.#.1                             1 #.o.T T %.%.T T o.6.T E -.0.7.  '.",
"'.  6.0.(  .O.8.x.!.b.x.<.O.O.*.#.1                             1 #.=.O.O.1.1.O.o.&.7.O. .A 0.7.  '.",
"'.  7.0.( #.&.9.1.&.*.8.h.v.x.j.#.1                             1 #.j.x.x.j.7.&.*.6.8.*.>.A h.7.  '.",
"'.  6.0.( E T <.o.T T %.v.).).!.#.1                             1 #.!.).T.z.&.T T o.<.T E A 0.7.  '.",
"'.  7.0.( E T 1.` T T %.c.)./.z.#.1                             1 #.!./.{ %.%.T T o.,.T E _ 0.7.  '.",
"'.  1.0.( E T <.o.T T %.c./.r.o.#.1                             1 #.z.{ T O.%.L Q w.<.T E A 0.7.  '.",
"'.  6.0./ E T <.` T T %.z.q.T o.#.1   . + + + + + + + + + + .   1 #.o.T T %.%.' p.!.<.T E Z 0.6.  '.",
"'.  7.0.U J T <.o.T T %.%.T T o.#.1 . - F F F F F F F F F F - . 1 #.o.T J %.=.p.).!.<.T T Y 0.6.  '.",
"'.  6.0.U R Q <.O.Q ' &.%.Q Q O.&.1 - F F F F F F F F F F F F - 1 #.O.Q Q %.b.^.(.b.6.Q R U 0.6.  '.",
"'.  6.0.U >.9.8.9.8.8.9.8.9.8.9.@.F F F F F F F F F F F F F F F F @.9.8.9.8.9.8.9.8.8.9.,.U 0.6.  '.",
"'.. 1.9.U F F F F F F F F F F F F F '.'.'.'.'.'.'.'.'.'.'.'.'.'.F F F F F F F F F F F F F U 0.1.. '.",
"'.F F F F '.'.'.'.'.'.'.'.'.'.'.'.'.'.'.'.'.'.'.'.'.'.'.'.'.'.'.'.'.'.'.'.'.'.'.'.'.'.'.'.F F F F '."
};
