/* XPM */
static char *b9953aacbbe646998aac3412d7283f3c6MGpczZdCVW9yu8s[] = {
/* columns rows colors chars-per-pixel */
"48 48 12 1 ",
"  c None",
". c #141B1B",
"X c #759892",
"o c #4A5270",
"O c #548789",
"+ c #E66A3A",
"@ c #FFAD5D",
"# c #EECF9B",
"$ c #E0394C",
"% c #965340",
"& c #A3754E",
"* c white",
/* pixels */
" ...                                        ... ",
".XXX........................................XXX.",
".XXXoXXXXXXXXXXXXXXXXXXXXXXXXXXXXXXXXXXXXXXoXXX.",
".XXXoXXXXXXXXXXXXXXXXXXXXXXXXXXXXXXXXXXXXXXoXXX.",
".OOoooooooooooooooooooooooooooooooooooooooooOOO.",
".XXoOOXXXXXXXXXXoXXXXXXXXXXXXXXXXXOXXXXXXXXXoXX.",
".XXoOOXXXO............................OXXXXXoXX.",
".XXoOOXXX.++++++++++++++++++++++++++++.XXXXXoXX.",
".XXoOOXXX.++++++++++++++++++++++++++++.XXXXXoXX.",
".XXoooOOo.@#####@#####@@@#######@#####.OOOOOoXX.",
".XXoXXXXX.#####@####.......#@@@@@@####.XXXXXoXX.",
".XXoOOOOO.@@##@####.##@#@#@.@#####@#@@.XXXXXoXX.",
".XXoOOOOO.###@####.@#@#@#@#@.###@@####.XXXXXoXX.",
".XXoOOOOO.@##@###@.#@@#@#@@#.##@@##@@@.XXXXXoXX.",
".XXoooooo.##@###@.$$#@#@#@#$$.#@@#@###.oOOOOoXX.",
".XXoXXXXX.#@@##@@.$$$$$$$$$$$.##@@###@.XOXOXoXX.",
".XXoXXXXX.#@@##@##.$$$$$$$$$.@##@##@@@.XXXOXoXX.",
".XXoXXXXX.++@#@@##@..$$$$$..@@##@#@@++.XXXXXoXX.",
".XXoXXXXX.@@@@@@##+++.....+++@##@@@@@@.XXXXXoXX.",
".XXoooooo.+@@+++@#@+++++++++@##@+++@@+.ooooooXX.",
".XXoOOOOO.@@+###+@@###@@###@##@+###+@@.OOOOOoXX.",
".XXoOOOOOo...###................###...oOOOOOoXX.",
".XXoOOOOOoooo...oooooooooooooooo...ooooOOOOOoXX.",
".XXoOOOOOOOoXXXXXXXXXXoOOOOOOOOOOOOoOOOOOOOOoXX.",
".XXoOOOOOOOoXXXXXXXXXXoOOOOOOOOOOOOoOOOOOOOOoXX.",
".OO.oooooooooooooooooooooooooooooooooooooooo.OO.",
".....+++@@@@@@@@@@@@@@@@@@@@@@@@@@@@@@@@+++.....",
" .++.++@@@%@%@%@%@@@@@@@@@@@@@@%@%@%@%@@@++.++. ",
" .++.+@@##&#&#&#&##############&#&#&#&##@@+.++. ",
" .@@+@@###&#&#&#&##############&#&#&#&###@@+@@. ",
" .@@+@@##################################@@+@@. ",
" .@@+&&&&&&&&&&&&&&&&&&&&&&&&&&&&&&&&&&&&&&+@@. ",
" .@@+@@@@@@@@@@@%..............%@@@@@@@@@@@+@@. ",
" .@@+&&@&&&@&&&@%..............%@&&&@&&&@&&+@@. ",
" .@@+&&@&&&@&&&@%..............%@&&&@&&&@&&+@@. ",
" .@@+&&@&&#@&&&@%..............%@&&&@&&&@&&+@@. ",
" .@@+&&@&##@&&&@%..............%@&&&@&&&@&&+@@. ",
" .@@+&&@###@&&&@%..............%@&&&@&&&@&&+@@. ",
" .@@+@@@@@@@@@@@%..............%@@@@@@@@@@@+@@. ",
" .@@+&&@&&&@###@%..............%@###@&&&@&&+@@. ",
" .@@+&&@&&&@###@%..............%@##&@&&&@&&+@@. ",
" .@@+&&@&&&@##&@%..............%@#&&@&&&@&&+@@. ",
" .@@+&&@&&&@#&&@%..............%@&&&@&&#@&&+@@. ",
" .@@%&&@&&&@&&&@%..%%%%%%%%%%..%@&&&@&##@&&%@@. ",
" .@@%&&@&&&@&&&@%.%%%%%%%%%%%%.%@&&&@###@&&%@@. ",
" .@@%@@@@@@@@@@@%%%%%%%%%%%%%%%%@@@@@@@@@@@%@@. ",
" .@@%%%%%%%%%%%%%              %%%%%%%%%%%%%@@. ",
" %%%%                                      %%%% "
};
