/* XPM */
static char *front[] = {
/* columns rows colors chars-per-pixel */
"50 50 95 2 ",
"   c #141B1B",
".  c #151C1C",
"X  c #171F1E",
"o  c #181F1F",
"O  c #19201F",
"+  c #1B2121",
"@  c #1A2221",
"#  c #1B2321",
"$  c #1C2422",
"%  c #1C2522",
"&  c #1D2623",
"*  c #1D2624",
"=  c #1E2725",
"-  c #1F2725",
";  c #232627",
":  c #212927",
">  c #222B28",
",  c #252B2A",
"<  c #272A2B",
"1  c #232C28",
"2  c #242D29",
"3  c #252E2B",
"4  c #2A2C2D",
"5  c #26302C",
"6  c #27312C",
"7  c #2A342F",
"8  c #2B3530",
"9  c #2E3532",
"0  c #2D3732",
"q  c #313233",
"w  c #333334",
"e  c #343435",
"r  c #363637",
"t  c #303B35",
"y  c #383738",
"u  c #333F38",
"i  c #3A393A",
"p  c #3B393B",
"a  c #412226",
"s  c #472327",
"d  c #48272C",
"f  c #413639",
"g  c #403D3E",
"h  c #403D3F",
"j  c #344039",
"k  c #3A463E",
"l  c #3C4940",
"z  c #474244",
"x  c #4A4547",
"c  c #414F44",
"v  c #4B4648",
"b  c #4E484A",
"n  c #4F4B4C",
"m  c #504D4D",
"M  c #435146",
"N  c #465549",
"B  c #49544B",
"V  c #48564A",
"C  c #4C544C",
"Z  c #4C5C4F",
"A  c #525250",
"S  c #535551",
"D  c #515750",
"F  c #545752",
"G  c #535D53",
"H  c #555C54",
"J  c #575D55",
"K  c #585F56",
"L  c #556356",
"P  c #566657",
"I  c #596258",
"U  c #5A655A",
"Y  c #5B675B",
"T  c #5D6B5D",
"R  c #5D6C5D",
"E  c #5D6D5E",
"W  c #5E6E5E",
"Q  c #5E6F5F",
"!  c #5F7160",
"~  c #6D766F",
"^  c #942E3A",
"/  c #B73846",
"(  c #C73546",
")  c #CE3B4C",
"_  c #E0394C",
"`  c #A05556",
"'  c #708173",
"]  c #809185",
"[  c #A1A6A0",
"{  c #A8A1A5",
"}  c #A1B1AB",
"|  c #ABB2B5",
" . c #E3DAE0",
".. c #E3F1F5",
"X. c None",
/* pixels */
"X.X.X.X.X.X.X.X.X.X.X.X.X.X.X.X.    @ 0 0 8 .           8 0 0 @     X.X.X.X.X.X.X.X.X.X.X.X.X.X.X.X.",
"X.X.X.X.X.X.X.X.X.X.X.X.X.X.X.X.    @ 0 0 8             7 0 0 @     X.X.X.X.X.X.X.X.X.X.X.X.X.X.X.X.",
"X.X.X.X.X.X.X.X.X.X.X.X.X.X.X.X.    @ 0 0 8   .         8 0 0 @     X.X.X.X.X.X.X.X.X.X.X.X.X.X.X.X.",
"X.X.X.X.X.X.X.X.X.X.X.X.X.X.X.X.    . o . - P P P P P P - o . . . . X.X.X.X.X.X.X.X.X.X.X.X.X.X.X.X.",
"X.X.X.X.X.X.X.X.X.X.X.X.X.X.X.X.          - ! ! ! ! ! ! -           X.X.X.X.X.X.X.X.X.X.X.X.X.X.X.X.",
"X.X.X.X.X.X.X.X.X.X.X.X.X.X.X.X.        . $ ! ! ! ! ! ! % .         X.X.X.X.X.X.X.X.X.X.X.X.X.X.X.X.",
"X.X.X.                      . @ > > -     $ ! ! ! ! ! ! %     - > > @   . .                   X.X.X.",
"X.X.X.                      . $ 5 5 :     - ! ! ! ! Q Q -     > 5 5 #                         X.X.X.",
"X.X.X.                        $ 5 5 : . . $ ! ! ! ! ! ! - .   > 7 7 O                         X.X.X.",
"      > 2 2 o           @ $ $ $ @ $ 5 M M N ! ! ! ! ! ! N c M 2 O O & & & O           o 2 2 2 X.X.X.",
"      7 0 0 @           $ 1 1 - .   6 ! ! ! ! ! ! ! ! ! ! W ! 5     & 1 1 & O         @ 0 0 0 X.X.X.",
"      7 0 0 @           $ 1 1 $     6 ! ! ! ! ! ! ! ! ! ! T ~ 5     & 1 1 O           @ 0 0 0 X.X.X.",
"      - : : u k k k k k 8 $ $ O     1 K H K ! ! ! ! ! ! ! ! ! 5     O O O 8 k k k j k j : : : X.X.X.",
"            Z ! ! ! ! ! k           ; b b m ! ! ! ! ! ! ! ! ! 5         O k ! ! ~ T ! Z       X.X.X.",
"            Z ! ! ! ! ! k           ; b b m ! ! ! ! ! ! ! ! ! 5           k ! ! ! ! ! Z       X.X.X.",
"            Z ! ! ! ! ! V t t 0 4 4 w b b m I I I I L P ! ! ! k t t t t t N ! ! ! ! ! Z       X.X.X.",
"            Z Q ! ! ! ! ! ! ! I b b b b b b b b b b b b T ! ! ! ! ! ! ! ! ! ! ! ! ! ! Z       X.X.X.",
"            Z Q ! ! ! ! ! ! ! L b b b b b b b b b b b b R ! ! ! ! ! ! ! ! ! ! ! ! ! ! Z       X.X.X.",
"            B Y Y W ! ! ! ! ! P A A A A A A A A A A A A R ! ! ! ! ! ! ! ! ! ! ! R Y L C       X.X.X.",
"            g b v I ! ! ! ! ! ! ! ! ! Q ! ! ! ! ! ! ! ! ~ ! ! ! ! ! ! ! ! ! ! ! L b b h       X.X.X.",
"            h m m I ! ! ~ T W ! ! ! ! ! ! ! ! ! ! ! ! ! T Q ! ! ! ! ! ! ! ! T ~ U m m g       X.X.X.",
"            p z z H Y W T T T T ! ! ! ! ! ! ! ! ! ! ! ! W Q ! ! ! ! ! W W W P T F z z p       X.X.X.",
"      X.X.X.      r m b b b b F ! ! ! ! ! ! ! ! ! ! ! ! ! ! ! ! ! ! F b v v b b r       X.X.X.X.X.X.",
"      X.X.X.      r b b b b b F ! ! ! ! ! ! ! ! ! ! ! ! ! ! ! ! ! ! F b b b b b y .     X.X.X.X.X.X.",
"      X.X.X.      y b b b b b F ! ! ! ! ! ! ! ! ! ! ! ! ! ! ! ! Q Q F b b b b b y       X.X.X.X.X.X.",
"X.X.X.                        4 b b b b b b b b n v m v v m b b b b 4                         X.X.X.",
"X.X.X.                        4 b b b b b b b b n v v n b b b b b b 4                         X.X.X.",
"X.X.X.                        4 b b b b b b b b v n n v b b b b b b 4                         X.X.X.",
"X.X.X.X.X.X.      e z z z z z r + + s ) ) / + + + $ O O / ) ) s @ + e z z z z z e       X.X.X.X.X.X.",
"X.X.X.X.X.X.      y b b b b b y     s _ _ (         .   ( _ _ s     y m b b b b y       X.X.X.X.X.X.",
"X.X.X.X.X.X.      y b b b b m r   . s _ _ (             ( _ _ s     y b b b b b y       X.X.X.X.X.X.",
"X.X.X.      c Z Z L Y Y Y Y Y D h h f s s a         . . a s s f h h D Y Y Y Y Y L Z Z c       X.X.X.",
"X.X.X.      Z ! ! ! ! ! ! ! ! L b b g                         g b b I ! ! ! ! ! ! ! ! Z .     X.X.X.",
"X.X.X.      Z Q ! ! ! ! ! ! ! L m m g                         h b b I ! ! ! ! ! ! ! ! Z . .   X.X.X.",
"X.X.X.      Z W ! ! ! ! ! ! ! W L L L l c M M M M M M M M M M H I I Y ! ! ! ! ! ! ! ! Z       X.X.X.",
"X.X.X.      Z T ! ! ! ! ! ! ! ! ! ! ! ! ! ! ! ! ! ! ! ! ! ! ! ! ! ! ! ! ! ! ! ! ! ! ! Z       X.X.X.",
"X.X.X.      Z ~ ! ! ! ! ! ! ! ! ! ! ! ! W W T ~ ! ! ! ! ! ! ! ! ! ! ! ! ! ! ! ! ! ! ! Z       X.X.X.",
"X.X.X.X.X.X.j k k C J J P ! ! ! ! ! ' } } [ ` ` ` ` ` ` [ } } ' ! ! ! ! ! Y J J C k k j X.X.X.X.X.X.",
"X.X.X.X.X.X.      r b b J ! ! ! ! ! ] .... ._ _ _ _ _ _  .....] ! ! ! ! ! J b b y       X.X.X.X.X.X.",
"X.X.X.X.X.X.    . r b m J ! ! ! ! ! ] .... ._ _ _ _ _ _  .....] ! ! ! ! ! J b b y       X.X.X.X.X.X.",
"X.X.X.X.X.X.4 4 4 h b b A I I I I I ~ | | { ^ ^ ^ ^ ^ ^ { | | ~ I I I I I D b b h 4 4 4 X.X.X.X.X.X.",
"X.X.X.      g b b m b b b b b b b b b b b z             z b b b b b b b b b b b b b b h       X.X.X.",
"X.X.X.      g b b b b b b b b b b b b m b z .           z b b b b b b b b b b b b b b p       X.X.X.",
"X.X.X.      h b b b b b b b b b b b x p g y           . p p h b b b b b b b b b b b b h       X.X.X.",
"X.X.X.      h b b b b b b b b b b b h                         p b b b b b b b b b b b h       X.X.X.",
"X.X.X.      h b b b b b b b b b b b h                         h b b b b b b b b b b b h       X.X.X.",
"X.X.X.      i z z z z z x b b b z z i                         i z z b b b x z z z z z i       X.X.X.",
"X.X.X.X.X.X.            q b b r                                     r b b q             X.X.X.X.X.X.",
"X.X.X.X.X.X.            q b b y                                     y b b q             X.X.X.X.X.X.",
"X.X.X.X.X.X.            q b b y                                     y b b q             X.X.X.X.X.X."
};
