/* XPM */
static char *left[] = {
/* columns rows colors chars-per-pixel */
"50 50 72 1 ",
"  c #141B1B",
". c #191F1F",
"X c #211D1E",
"o c #241D1F",
"O c #2E1F21",
"+ c #1B2121",
"@ c #1F2324",
"# c #212525",
"$ c #232627",
"% c #242728",
"& c #26292A",
"* c #272A2B",
"= c #292B2C",
"- c #2A2C2D",
"; c #2E2F30",
": c #2F3031",
"> c #2D3732",
", c #2D3832",
"< c #313233",
"1 c #363637",
"2 c #303B35",
"3 c #383738",
"4 c #3A393A",
"5 c #3B393B",
"6 c #403D3E",
"7 c #403D3F",
"8 c #62272E",
"9 c #7A2A34",
"0 c #3A463E",
"q c #413E40",
"w c #3E4640",
"e c #3D4940",
"r c #434041",
"t c #474244",
"y c #494446",
"u c #4C4749",
"i c #4E484A",
"p c #4F4B4B",
"a c #504C4C",
"s c #504D4D",
"d c #47554A",
"f c #49544B",
"g c #48564A",
"h c #4D574E",
"j c #4C5C4F",
"k c #535450",
"l c #545752",
"z c #565B54",
"x c #555C54",
"c c #575D55",
"v c #536455",
"b c #566657",
"n c #596258",
"m c #5B675B",
"M c #5D6C5D",
"N c #5D6D5E",
"B c #5E6E5E",
"V c #5F7160",
"C c #7D7D7F",
"Z c #942E3A",
"A c #E0394C",
"S c #804748",
"D c #B04E54",
"F c #89636A",
"G c #8F9995",
"H c #B18888",
"J c #999DA0",
"K c #ABB2B5",
"L c #E295A1",
"P c #B2C1BD",
"I c #E3F1F5",
"U c None",
/* pixels */
"UUUUUUUUUUUUUUUUUUUUUU      UUUUUUUUUUUUUUUUUUUUUU",
"UUUUUUUUUUUUUUUUUUUUUU      UUUUUUUUUUUUUUUUUUUUUU",
"UUUUUUUUUUUUUUUUUUUUUU      UUUUUUUUUUUUUUUUUUUUUU",
"UUUUUUUUUUUUUUUU     +tttttt+     UUUUUUUUUUUUUUUU",
"UUUUUUUUUUUUUUUU     +iiiiii+     UUUUUUUUUUUUUUUU",
"UUUUUUUUUUUUUUUU     +iiiiii+     UUUUUUUUUUUUUUUU",
"UUU   UUUU      UUU  +iiiiiiq75#     UUUUUUUUUUUUU",
"UUU   UUU       UUU  +iiiiiiiii%     UUUUUUUUUUUUU",
"UUU   UUU       UUU  +iiiiiiiii#     UUUUUUUUUUUUU",
"UUUUUUUUUUUUUUUU  #555iiiiii:--+     UUUUUUUUUUUUU",
"UUUUUUUUUUUUUUUU  #iiiiiiiii+        UUUUUUUUUUUUU",
"UUUUUUUUUUUUUUUU  #iiiiiiiii+        UUUUUUUUUUUUU",
"UUUUUUUUUUUUUUU%<<3iiicccccce00000000,UUUUUUUUUUUU",
"UUUUUU         -iiiiisVVVVVVVVVVVVVVV0      UUUUUU",
"UUUUUU         -iiiiisVVVVVVVVVVVVVVV0      UUUUUU",
"UUUUUU,22222222wlllllzVVVVVVVVVVVVVVVg22222,UUUUUU",
"UUU   jVVVVVVVVVVVVVVVVVVVVVVVVVVVVVVVVVVVVh   UUU",
"UUU   jVVVVVVVVVVVVVVVVVVVVVVVVVVVVVVVVVVVVj   UUU",
"UUU   fmmNVVVVVVVVVVVVVVVVVVVVVVVVVVVVVVNmmf   UUU",
"UUU   7iinVVVVVVVVVVVVVVVVVVVVVVVVVVVVVVmii7   UUU",
"UUU   5iinVVVVVVVVVVVVVVVVVVVVVVVVVVVVVVnuu5   UUU",
"UUU   5ytxMMMMMNVVVVVVVVVVVVVVVVVVNNMMMNctt5   UUU",
"UUUUUU   5iiiiilVVVVVVVVVVVVVVVVVVliuiii1      UUU",
"UUUUUU   1iiiiilVVVVVVVVVVVVVVVVVVliiiii5      UUU",
"UUUUUU   5iiiiilVVVVVVVVVVVVVVVVVVliiiii5      UUU",
"UUUUUU      9AAZ  #iiiiiiiiiiiiiiiiiiiiiiiiq   UUU",
"UUUUUU      9AAZ  %iiiiiiiiiiiiiiiiiiiiiiii5   UUU",
"UUUUUU      9AAZ  #iiiiiiiiiiiiiiiiiiiiiiii7   UUU",
"UUU   fbb,  .OOO  &iiiiiiiiiiiiiiiiiiiiiiii5   UUU",
"UUU   jVV2        #iiiiiiiiiiiiiiiiiiiiiiiiq   UUU",
"UUU   jVV2        #iiiiiiiiiiiiiiiiiiiiiiii7   UUU",
"UUU   jVVvjjjhjjjjhiipmmmmmmsiiiiiiiiiiiiii7   UUU",
"UUU   jVVVVVVVVVVVmiisVVVVVVsiiiiiiiiiiiiii7   UUU",
"UUU   jVVVVVVVVVVVmiisVVVVVVsiiiiiiiiiiiiia5   UUU",
"UUUUUU,22SDDHPPGllkiisVVVVVVsiiiiiiiiiii7=-&UUUUUU",
"UUUUUU   ZAALIIKiiiiisVVVVVVsiiiiiiiiiii5   UUUUUU",
"UUUUUU   ZAALIIKiiiiisVVVVVVsiiiiiiiiiii5   UUUUUU",
"UUUUUUUUU899FJJCiiiiipccccccpiiiiiiii7<<-UUUUUUUUU",
"UUUUUUUUU   <iiiiiiiiiiiiiiiiiiiiiiii<   UUUUUUUUU",
"UUUUUUUUU   <iiiiiiiiiiiiiiiiiiiiiiii<   UUUUUUUUU",
"UUUUUUUUUU  -535iiiiiiiiiiiiiiiiiiiii<   UUUUUUUUU",
"UUUUUUUUUUUUU  -iiiiiiiiiiiiiiiiiiiii<   UUUUUUUUU",
"UUUUUUUUUUUUU  -iiiiiiiiiiiiiiiiiiiii<   UUUUUUUUU",
"UUUUUUUUUUUUU  -iiiiii575iiiiiir57yii<   UUUUUUUUU",
"UUUUUUUUUUUUU  -iiiiit   iiiiii%  5ii<   UUUUUUUUU",
"UUUUUUUUUUUUU  -iiiiit   iiiiii%  3ii<   UUUUUUUUU",
"UUUUUUUUUUUUU  -ttyiit   tytttt-++1tt:   UUUUUUUUU",
"UUUUUUUUUUUUUUUU  %iit         5ii-  UUUUUUUUUUUUU",
"UUUUUUUUUUUUUUUU  %iit         rii-  UUUUUUUUUUUUU",
"UUUUUUUUUUUUUUUU  %iit         5ii-  UUUUUUUUUUUUU"
};
