/* XPM */
static char *right[] = {
/* columns rows colors chars-per-pixel */
"50 50 72 1 ",
"  c #141B1B",
". c #191F1F",
"X c #211D1E",
"o c #241D1F",
"O c #2E1F21",
"+ c #1B2121",
"@ c #1F2324",
"# c #212525",
"$ c #232627",
"% c #242728",
"& c #26292A",
"* c #272A2B",
"= c #292B2C",
"- c #2A2C2D",
"; c #2E2F30",
": c #2F3031",
"> c #2D3732",
", c #2D3832",
"< c #313233",
"1 c #363637",
"2 c #303B35",
"3 c #383738",
"4 c #3A393A",
"5 c #3B393B",
"6 c #403D3E",
"7 c #403D3F",
"8 c #62272E",
"9 c #7A2A34",
"0 c #3A463E",
"q c #413E40",
"w c #3E4640",
"e c #3D4940",
"r c #434041",
"t c #474244",
"y c #494446",
"u c #4C4749",
"i c #4E484A",
"p c #4F4B4B",
"a c #504C4C",
"s c #504D4D",
"d c #47554A",
"f c #49544B",
"g c #48564A",
"h c #4D574E",
"j c #4C5C4F",
"k c #535450",
"l c #545752",
"z c #565B54",
"x c #555C54",
"c c #575D55",
"v c #536455",
"b c #566657",
"n c #596258",
"m c #5B675B",
"M c #5D6C5D",
"N c #5D6D5E",
"B c #5E6E5E",
"V c #5F7160",
"C c #7D7D7F",
"Z c #942E3A",
"A c #E0394C",
"S c #804748",
"D c #B04E54",
"F c #89636A",
"G c #8F9995",
"H c #B18888",
"J c #999DA0",
"K c #ABB2B5",
"L c #E295A1",
"P c #B2C1BD",
"I c #E3F1F5",
"U c None",
/* pixels */
"UUUUUUUUUUUUUUUUUUUUUU      UUUUUUUUUUUUUUUUUUUUUU",
"UUUUUUUUUUUUUUUUUUUUUU      UUUUUUUUUUUUUUUUUUUUUU",
"UUUUUUUUUUUUUUUUUUUUUU      UUUUUUUUUUUUUUUUUUUUUU",
"UUUUUUUUUUUUUUUU     +tttttt+     UUUUUUUUUUUUUUUU",
"UUUUUUUUUUUUUUUU     +iiiiii+     UUUUUUUUUUUUUUUU",
"UUUUUUUUUUUUUUUU     +iiiiii+     UUUUUUUUUUUUUUUU",
"UUUUUUUUUUUUU     @66qiiiiii+  UUU      UUUU   UUU",
"UUUUUUUUUUUUU     $iiiiiiiii+  UUU       UUU   UUU",
"UUUUUUUUUUUUU     $iiiiiiiii+  UUU       UUU   UUU",
"UUUUUUUUUUUUU     +--:iiiiii531$  UUUUUUUUUUUUUUUU",
"UUUUUUUUUUUUU        +iiiiiiiii$  UUUUUUUUUUUUUUUU",
"UUUUUUUUUUUUU        +iiiiiiiii$  UUUUUUUUUUUUUUUU",
"UUUUUUUUUUUU,00000000ecccccxiii5<<%UUUUUUUUUUUUUUU",
"UUUUUU      0VVVVVVVVVVVVVVVsiiiii-         UUUUUU",
"UUUUUU      0VVVVVVVVVVVVVVVpiiiau-         UUUUUU",
"UUUUUU,22222gVVVVVVVVVVVVVVVxlllllw22222222,UUUUUU",
"UUU   jVVVVVVVVVVVVVVVVVVVVVVVVVVVVVVVVVVVVj   UUU",
"UUU   jVVVVVVVVVVVVVVVVVVVVVVVVVVVVVVVVVVVVj   UUU",
"UUU   hmmNVVVVVVVVVVVVVVVVVVVVVVVVVVVVVVNmmf   UUU",
"UUU   5iinVVVVVVVVVVVVVVVVVVVVVVVVVVVVVVnii6   UUU",
"UUU   6iinVVVVVVVVVVVVVVVVVVVVVVVVVVVVVVniu6   UUU",
"UUU   5ttxMNMMMNVVVVVVVVVVVVVVVVVVBMMMMNzyt5   UUU",
"UUU      3uiiiilVVVVVVVVVVVVVVVVVVliuaii3   UUUUUU",
"UUU      3iiiiilVVVVVVVVVVVVVVVVVVliiuii3   UUUUUU",
"UUU      3iiiiilVVVVVVVVVVVVVVVVVVluuiii3   UUUUUU",
"UUU   6iiiiiiiiiiiiiiiiiiiiiiii$  ZAA9      UUUUUU",
"UUU   6iiiiiiiiiiiiiiiiiiiiiiii$  ZAA9      UUUUUU",
"UUU   6iiiiiiiiiiiiiiiiiiiiiiii$  ZAA9      UUUUUU",
"UUU   6iiiiiiiiiiiiiiiiiiiiiiii$  oOOX  >bbd   UUU",
"UUU   6iiiiiiiiiiiiiiiiiiiiiiii$        2VVj   UUU",
"UUU   6iiiiiiiiiiiiiiiiiiiiiiii$        2VVj   UUU",
"UUU   6iiiiiiiiiiiiiismmmmmmpiihjjjjjjjjbVVj   UUU",
"UUU   6iiiiiiiiiiiiiisVVVVVVsiimVVVVVVVVVVVj   UUU",
"UUU   6iiiiiiiiiiiiiisVVVVVVsiimVVVVVVVVVVVj   UUU",
"UUUUUU*--6iiiiiiiiiiisVVVVVVsiikzcGKPHDDS22>UUUUUU",
"UUUUUU   3iiiiiiiiiiisVVVVVVsiiiisKIILAAZ   UUUUUU",
"UUUUUU   5iiiiiiiiiiisVVVVVVsiiiiiKIILAAZ   UUUUUU",
"UUUUUUUUU-<<6iiiiiiiiacxccccaiiiiiCJJF998UUUUUUUUU",
"UUUUUUUUU   <iiiiiiiiiiiiiiiuiiiiiiii<   UUUUUUUUU",
"UUUUUUUUU   <iiiiiiiiiiiiiiiauiiiiiii<   UUUUUUUUU",
"UUUUUUUUU   <iiiiiiiiiiiiiiiiiiiiuq33-  UUUUUUUUUU",
"UUUUUUUUU   <iiiiiiiiiiiiiiiiiiiia-  UUUUUUUUUUUUU",
"UUUUUUUUU   <iiiiiiiiiiiiiiiiiiiii-  UUUUUUUUUUUUU",
"UUUUUUUUU   <iiy66riiiiii666uiiiii-  UUUUUUUUUUUUU",
"UUUUUUUUU   <ii3  $iiiiii   tiiiii-  UUUUUUUUUUUUU",
"UUUUUUUUU   <ii3  $iiiiii   tiiiii-  UUUUUUUUUUUUU",
"UUUUUUUUU   :tt1++&tttttt   tiiyty-  UUUUUUUUUUUUU",
"UUUUUUUUUUUUU  -ii6         tii$  UUUUUUUUUUUUUUUU",
"UUUUUUUUUUUUU  -iiq         yii$  UUUUUUUUUUUUUUUU",
"UUUUUUUUUUUUU  -ii5         tii$  UUUUUUUUUUUUUUUU"
};
