/* XPM */
static char *wallBigger[] = {
/* columns rows colors chars-per-pixel */
"50 50 50 1 ",
"  c #020202",
". c #141B1B",
"X c #22361E",
"o c #394222",
"O c #3A4323",
"+ c #2F5021",
"@ c #475125",
"# c #4D5727",
"$ c #546528",
"% c #5A6429",
"& c #616C2B",
"* c #4A8526",
"= c #74802E",
"- c #65992F",
"; c #689231",
": c #6A9C31",
"> c #6F9C33",
", c #6D9E32",
"< c #749732",
"1 c #74A334",
"2 c #78A534",
"3 c #79A535",
"4 c #7BA635",
"5 c #879432",
"6 c #899633",
"7 c #869933",
"8 c #909E34",
"9 c #80A835",
"0 c #81A935",
"q c #82A936",
"w c #86A935",
"e c #89AC36",
"r c #8CAE37",
"t c #8DAE37",
"y c #94A535",
"u c #9AA836",
"i c #91B037",
"p c #93B137",
"a c #98B338",
"s c #99B338",
"d c #9BB438",
"f c #9FB639",
"g c #A0B639",
"h c #A2B739",
"j c #A6B939",
"k c #A7B939",
"l c #A8BA39",
"z c #AABB3A",
"x c #ADBC3A",
"c c None",
/* pixels */
"cccccccccccccccccccccccccccccccccccccccccccccccccc",
"cccccccccccccccccccccccccccccccccccccccccccccccccc",
"cccccccccccccccccccccccccccccccccccccccccccccccccc",
"cccccccccccccccc..................cccccccccccccccc",
"cccccccccccccccc..................cccccccccccccccc",
"cccccccccccccccc..................cccccccccccccccc",
"cccccccccc.....@655555555555555565@.....cccccccccc",
"ccccccccc......#xxxxxxxxxxxxxxxxxx#......ccccccccc",
"ccccccccc......#xxxxxxxxxxxxxxxxxx#......ccccccccc",
"ccc***X..%=====6xxxxxxxxxxxxxxxxxx6=====%..X***ccc",
"ccc***X..=xxxxxxxxxxxxxxxxxxxxxxxxxxxxxx=..X***ccc",
"ccc***X..=xxxxxxxxxxxxxxxxxxxxxxxxxxxxxx=..X***ccc",
"ccc+++$&&8xxxxxxxxxxxxxxxxxxxxxxxxxxxxxx8&&$+++ccc",
"ccc...5xxxxxxxxxxxxxxxxxxxxxxxxxxxxxxxxxxxx5...ccc",
"ccc...5xxxxxxxxxxxxxxxxxxxxxxxxxxxxxxxxxxxx5...ccc",
"ccc...5xxgaagxxxxxxxxxxxxxxxxxxxxxxxxgaagxx5...ccc",
"ccc...6xxe11ixxxxxxxxxxxxxxxxxxxxxxxxi11exx5...ccc",
"ccc...5xxe11ixxxxxxxxxxxxxxxxxxxxxxxxi11exx5...ccc",
"cccOOO7ggtqqaxxxxxxxxxxxxxxxxxxxxxxxxdqqeff7OOOccc",
"...uxxq11axxxxxxxxxxxxxxxxxxxxxxxxxxxxxxd11qxxu...",
"...uxxq11axxxxxxxxxxxxxxxxxxxxxxxxxxxxxxa11qxxu...",
"...uxxq11axxxxxljjlxxxxxxxxxxxxljjlxxxxxa11qxxu...",
"...uxxq11axxxxxa11qxxxxxxxxxxxxq11axxxxxa11qxxu...",
"...uxxq11axxxxxa11qxxxxxxxxxxxxq11axxxxxa11qxxu...",
"...uxxq11axxxxxa11qxxxxxxxxxxxxq11axxxxxd11qxxu...",
"...;11111axxt11exxxxxxxxxxxxxxxxxxe11ixxa11111;...",
"...;11111axxi11exxxxxxxxxxxxxxxxxxe11ixxa11111;...",
"...;11111axxi11exxxxxxxxxxxxxxxxxxe11ixxa11111;...",
"...yjjq11444111exxxxxj444444jxxxxxe11144111qjjy...",
"...uxxq11111111exxxxxj111111jxxxxxe11111111qxxu...",
"...uxxq11111111exxxxxj111111jxxxxxe11111111qxxu...",
"...<qqafffffe114qqqqqq111111qqqqqq411efffffdqq<...",
"...;11fxxxxxi111111111111111111111111ixxxxxf11;...",
"...;11fxxxxxi111111111111111111111111ixxxxxf11;...",
"ccc>11fxxxxxi11qaaaaap111111paaaaaq11ixxxxxf11>ccc",
"ccc111fxxxxxi11exxxxxj111111jxxxxxe11ixxxxxf111ccc",
"ccc111fxxxxxi11exxxxxj111111jxxxxxe11ixxxxxf111ccc",
"cccccctiiiiiiiidxxxxxj111111jxxxxxfiiiiiiiitcccccc",
"cccccc111111ixxxxxxxxj111111jxxxxxxxxi111111ccc   ",
"cccccc111111ixxxxxxxxj111111jxxxxxxxxi111111ccc   ",
"ccccccc11111ixxxxxxxxj111111jxxxxxxxxi11111>ccc   ",
"ccccccccc111ixxxxxxxxj111111jxxxxxxxxi111ccc***ccc",
"ccccccccc111ixxxxxxxxj111111jxxxxxxxxi111ccc***ccc",
"ccccccccc-::qxxjfgggfa111111agggffjxxi11cccc***ccc",
"cccccc******cccc111111111111111111cccccccccc***ccc",
"cccccc******cccc111111111111111111cccccccccc***ccc",
"cccccc******cccc111111111111111111cccccccccc***ccc",
"cccccccccccccccccccccccccccccccccccccccccccccccccc",
"cccccccccccccccccccccccccccccccccccccccccccccccccc",
"cccccccccccccccccccccccccccccccccccccccccccccccccc"
};
